<?xml version="1.0" standalone="no"?>
<!DOCTYPE svg PUBLIC "-//W3C//DTD SVG 20010904//EN"
 "http://www.w3.org/TR/2001/REC-SVG-20010904/DTD/svg10.dtd">
<svg version="1.0" xmlns="http://www.w3.org/2000/svg"
 width="645.000000pt" height="645.000000pt" viewBox="0 0 645.000000 645.000000"
 preserveAspectRatio="xMidYMid meet">
<metadata>
Created by potrace 1.14, written by Peter Selinger 2001-2017
</metadata>
<g transform="translate(0.000000,645.000000) scale(0.100000,-0.100000)"
fill="#000000" stroke="none">
<path d="M5579 3728 c-4 -9 -5 -625 -1 -635 3 -9 26 -13 71 -13 l66 0 2 70 c1
68 13 101 37 99 6 0 38 -37 72 -82 l61 -82 82 -3 c48 -2 81 1 79 6 -1 5 -17
27 -34 48 -17 22 -62 77 -99 124 l-68 84 102 96 c56 52 101 98 101 101 0 3
-39 5 -88 5 l-87 -1 -74 -78 c-41 -42 -77 -77 -80 -77 -3 0 -6 75 -6 167 l0
168 -67 3 c-38 2 -69 2 -69 0z"/>
<path d="M3806 3521 c-2 -9 -4 -148 -4 -308 l1 -293 74 0 73 0 0 120 0 120
114 0 c82 0 115 -3 118 -12 2 -7 4 -61 3 -120 l-2 -108 74 0 73 0 1 93 c1 123
1 321 0 433 l-1 92 -72 -2 -73 -1 0 -120 -1 -120 -114 0 -115 0 -5 120 -5 121
-67 0 c-54 1 -69 -2 -72 -15z"/>
<path d="M4594 3423 c-33 -6 -102 -70 -125 -115 -28 -56 -30 -167 -2 -228 54
-122 173 -167 277 -106 44 26 46 26 46 6 0 -23 -4 -22 78 -24 l62 -2 1 30 c0
17 0 121 1 231 l0 200 -71 3 c-66 3 -70 2 -66 -18 2 -13 -1 -20 -11 -20 -8 0
-14 4 -14 9 0 5 -18 16 -40 25 -38 15 -88 18 -136 9z m167 -142 c16 -16 29
-35 30 -43 0 -7 2 -27 3 -45 10 -139 -173 -175 -204 -40 -19 86 27 157 101
157 31 0 47 -7 70 -29z"/>
<path d="M3012 3098 l3 -323 68 -2 67 -2 0 144 c0 154 7 186 47 204 37 17 62
13 88 -14 24 -23 25 -28 25 -178 l0 -153 70 -1 70 -2 -1 172 c-1 171 -6 208
-40 255 -39 55 -150 64 -219 18 l-40 -26 0 115 0 115 -70 0 -70 0 2 -322z"/>
<path d="M5195 3394 c-97 -34 -157 -120 -158 -226 0 -100 45 -177 127 -220 79
-42 230 -23 284 35 l21 23 -39 44 c-30 34 -42 42 -48 32 -13 -19 -82 -41 -112
-35 -116 20 -131 192 -20 229 41 14 95 1 128 -29 12 -11 22 -16 22 -11 0 5 16
27 36 48 33 37 34 40 18 57 -48 53 -181 80 -259 53z"/>
<path d="M682 3330 c-4 -3 -7 -141 -7 -308 0 -295 0 -302 20 -302 123 -3 319
3 351 11 50 13 110 68 120 112 21 85 -10 171 -72 199 -24 11 -24 11 -4 25 61
43 70 153 16 211 -41 45 -79 54 -254 56 -89 1 -166 -1 -170 -4z m275 -126 c12
-3 27 -19 33 -35 10 -24 10 -33 -4 -54 -17 -26 -20 -27 -113 -29 l-56 -1 1 43
c1 89 -4 82 60 82 31 0 67 -3 79 -6z m40 -242 c30 -17 39 -56 20 -86 -19 -28
-40 -33 -132 -32 l-68 1 0 45 c2 94 -6 86 81 85 42 -1 87 -7 99 -13z"/>
<path d="M403 3262 c-8 -5 -193 -369 -281 -554 -2 -5 21 -8 52 -8 l55 0 54
113 c30 61 93 189 140 284 l86 171 -48 0 c-25 1 -52 -2 -58 -6z"/>
<path d="M2595 3241 c-47 -21 -98 -76 -120 -128 -17 -41 -19 -122 -5 -174 15
-52 82 -124 135 -145 82 -31 229 -4 274 50 11 13 7 22 -24 60 l-36 45 -37 -26
c-30 -20 -45 -24 -82 -20 -69 8 -109 62 -101 137 10 91 109 128 189 71 l29
-20 25 27 c49 55 52 60 37 79 -8 9 -36 27 -64 39 -62 30 -160 31 -220 5z"/>
<path d="M1415 3203 c-27 -13 -57 -34 -68 -46 -81 -93 -81 -254 0 -339 74 -77
212 -96 317 -43 31 15 56 30 56 33 0 9 -55 92 -61 92 -4 0 -20 -7 -35 -15 -16
-8 -53 -15 -83 -15 -47 0 -57 4 -87 34 -19 19 -34 38 -34 43 0 5 73 8 161 8
l161 0 -4 65 c-6 80 -33 129 -95 171 -36 25 -55 31 -112 34 -56 2 -76 -1 -116
-22z m170 -118 c25 -24 32 -44 18 -46 -30 -5 -166 -3 -175 2 -7 5 0 18 20 38
40 41 100 43 137 6z"/>
<path d="M1996 3189 c-88 -24 -156 -119 -158 -221 -4 -200 162 -321 306 -223
36 25 40 24 37 -7 -2 -16 7 -18 71 -18 l73 0 0 230 c0 127 -2 230 -5 231 -3 1
-33 2 -67 3 -63 3 -66 1 -66 -37 0 -17 -1 -17 -21 1 -45 41 -111 57 -170 41z
m120 -119 c46 -17 68 -55 67 -118 -1 -89 -58 -138 -135 -116 -90 26 -95 186
-7 231 29 16 38 16 75 3z"/>
<path d="M6200 3009 c-72 -9 -72 -9 -300 -64 -334 -81 -394 -95 -430 -101 -19
-3 -41 -7 -48 -9 -51 -18 -293 -47 -402 -49 -80 -2 -269 14 -346 28 -11 2 -48
7 -84 11 -36 4 -78 9 -95 11 -50 7 -257 6 -305 -1 -41 -6 -106 -18 -155 -29
-59 -12 -165 -43 -322 -92 -97 -30 -187 -57 -202 -60 -14 -4 -186 -7 -381 -9
-324 -2 -493 -8 -560 -19 -14 -3 -47 -7 -75 -11 -27 -3 -57 -8 -65 -10 -8 -2
-37 -7 -65 -10 -27 -4 -63 -9 -80 -11 -110 -15 -159 -18 -315 -18 -96 0 -184
3 -195 8 -11 4 -47 9 -80 11 -130 7 -210 18 -217 29 -5 7 -8 7 -8 0 0 -6 -19
-10 -45 -10 -25 1 -45 5 -45 9 0 5 -5 5 -12 1 -7 -4 -35 -8 -63 -9 -42 -2
-178 -15 -195 -20 -6 -1 -83 -15 -125 -21 -16 -3 -79 -14 -140 -24 -97 -17
-162 -24 -285 -34 -19 -2 -41 2 -49 8 -11 8 -13 8 -7 -1 5 -10 -39 -12 -205
-9 -198 3 -213 2 -231 -16 -18 -18 -18 -20 -2 -36 16 -16 112 -17 1433 -20
4356 -9 4850 -8 4881 4 16 7 39 28 50 46 18 30 20 50 20 226 0 214 -6 244 -59
281 -35 25 -98 32 -191 20z"/>
</g>
</svg>
